<svg xmlns="http://www.w3.org/2000/svg" xmlns:xlink="http://www.w3.org/1999/xlink" viewBox="0,0,256,256" width="16px" height="16px" fill-rule="nonzero"><g fill-opacity="0" fill="#000000" fill-rule="nonzero" stroke="none" stroke-width="1" stroke-linecap="butt" stroke-linejoin="miter" stroke-miterlimit="10" stroke-dasharray="" stroke-dashoffset="0" font-family="none" font-weight="none" font-size="none" text-anchor="none" style="mix-blend-mode: normal"><path d="M0,256v-256h256v256z" id="bgRectangle"></path></g><g fill="none" fill-rule="nonzero" stroke="none" stroke-width="1" stroke-linecap="butt" stroke-linejoin="miter" stroke-miterlimit="10" stroke-dasharray="" stroke-dashoffset="0" font-family="none" font-weight="none" font-size="none" text-anchor="none" style="mix-blend-mode: normal"><g transform="scale(3.2,3.2)"><path d="M6.5,77.5v-51.214l33.496,-19.706l33.504,19.706v51.214z" fill="#e6e6e6"></path><path d="M39.996,7.16l33.004,19.412v50.428h-66v-50.428l32.996,-19.412M39.996,6l-33.996,20v52h68v-52l-34.004,-20z" fill="#ffffff"></path><path d="M7,71h66v6h-66z" fill="#ffffff"></path><path d="M39.995,9.875l-37.495,22.926v-7.29l37.495,-22.925l37.505,22.925v7.29z" fill="#e6e6e6"></path><path d="M39.995,3.172l37.005,22.62v6.117l-36.483,-22.301l-0.522,-0.319l-0.522,0.319l-36.473,22.301v-6.117l36.995,-22.62M39.995,2l-37.995,23.231v8.462l37.995,-23.231l38.005,23.23v-8.462l-38.005,-23.23z" fill="#ffffff"></path><g><path d="M28.5,42.5h23v35h-23z" fill="#e6e6e6"></path><path d="M51,43v34h-22v-34h22M52,42h-24v36h24v-36z" fill="#ffffff"></path></g><path d="M46.5,60c-0.82843,0 -1.5,0.67157 -1.5,1.5c0,0.82843 0.67157,1.5 1.5,1.5c0.82843,0 1.5,-0.67157 1.5,-1.5c0,-0.82843 -0.67157,-1.5 -1.5,-1.5z" fill="#ffffff"></path></g></g></svg>